<svg width="100" height="30" viewBox="0 0 225 66" fill="none" xmlns="http://www.w3.org/2000/svg"><path d="M9.57972 4.30713C9.57972 6.8678 7.56293 8.74406 4.75911 8.74406C2.07827 8.75586 0 6.8796 0 4.30713C0 1.81725 2.07827 0 4.75911 0C7.55064 0 9.57972 1.81725 9.57972 4.30713ZM1.10677 15.5057H8.46065V49.8801H1.10677V15.5057Z" fill="#FFFFFF"></path><path d="M49.2387 28.1914V49.8804H41.8726V29.631C41.8726 24.3208 39.4623 21.5006 34.0514 21.5006C27.7305 21.5006 24.3487 25.4419 24.3487 32.0619V49.8804H16.9948V15.506H24.3487V21.1938C26.8943 17.1934 30.7311 14.7508 36.3387 14.7508C44.4181 14.7508 49.2387 19.8131 49.2387 28.1914Z" fill="#FFFFFF"></path><path d="M55.7568 38.8107H63.2459C64.3527 42.6222 67.2795 44.3686 73.4774 44.3686C78.2365 44.3686 81.1633 42.988 81.1633 40.4273C81.1633 37.548 77.7815 37.1114 71.7803 35.7426C61.7456 33.3707 57.5153 31.4354 57.5153 25.6769C57.5153 18.7383 63.6394 14.738 72.6289 14.738C81.8151 14.738 86.9554 18.9271 88.2589 25.1813H80.8313C79.786 22.3728 77.056 20.9921 72.4936 20.9921C67.7345 20.9921 64.943 22.5498 64.943 24.9335C64.943 27.1165 67.1565 27.6829 73.4159 29.1226C83.1186 31.3056 88.7262 32.9341 88.7262 39.6249C88.7262 47.0001 81.8274 50.6228 73.3544 50.6228C63.8977 50.6228 57.1218 46.2449 55.7568 38.8107Z" fill="#FFFFFF"></path><path d="M132.284 32.687C132.284 43.1893 125.312 50.6236 115.744 50.6236C110.149 50.6236 105.845 48.0039 103.238 44.1216V65.492H95.8839V15.5057H103.238V21.3823C105.845 17.441 110.137 14.7623 115.806 14.7623C125.189 14.7505 132.284 22.1847 132.284 32.687ZM124.857 32.687C124.857 26.126 120.43 21.5003 114.17 21.5003C107.911 21.5003 103.164 26.126 103.164 32.687C103.164 39.307 107.923 43.8738 114.17 43.8738C120.368 43.8738 124.857 39.307 124.857 32.687Z" fill="#FFFFFF"></path><path d="M148.171 4.3072C148.171 6.86788 146.155 8.74413 143.351 8.74413C140.682 8.74413 138.592 6.86788 138.592 4.3072C138.592 1.80553 140.67 7.62939e-05 143.351 7.62939e-05C146.155 7.62939e-05 148.171 1.81733 148.171 4.3072ZM139.711 15.5057H147.065V49.8801H139.711V15.5057Z" fill="#FFFFFF"></path><path d="M163.348 22.2554V49.8801H155.969V15.5056H176.272V22.2672H163.348V22.2554Z" fill="#FFFFFF"></path><path d="M190.573 4.3072C190.573 6.86788 188.557 8.74413 185.753 8.74413C183.084 8.74413 180.994 6.86788 180.994 4.3072C180.994 1.80553 183.072 7.62939e-05 185.753 7.62939e-05C188.557 7.62939e-05 190.573 1.81733 190.573 4.3072ZM182.113 15.5057H189.467V49.8801H182.113V15.5057Z" fill="#FFFFFF"></path><path d="M224.023 15.506V22.1732H203.449L203.437 36.1566C203.437 41.4196 205.909 43.8858 210.077 43.8858C214.259 43.8858 216.669 41.4196 216.669 36.1566V31.2595H224.035V35.956C224.023 44.9007 218.796 50.612 210.114 50.612C201.494 50.612 196.071 45.0187 196.071 35.956V7.93018H203.449V15.4942H224.023V15.506Z" fill="#FFFFFF"></path></svg>